<svg width="229" height="59" viewBox="0 0 229 59" fill="none" xmlns="http://www.w3.org/2000/svg">
<mask id="mask0_1_18" style="mask-type:luminance" maskUnits="userSpaceOnUse" x="64" y="15" width="165" height="29">
<path d="M69.7677 21.4944C68.531 21.4944 67.5281 20.4919 67.5281 19.2549V17.5444H77.2368C78.8859 17.5444 80.2229 18.8811 80.2229 20.5304V34.724C80.2229 37.7548 79.4513 40.0282 77.908 41.5437C76.3647 43.0591 74.3856 43.8168 71.9714 43.8168C68.9346 43.8168 66.3459 42.7485 64.2051 40.612L64.7023 39.9232C65.7621 38.4551 67.8407 38.3747 69.5027 39.0941C70.2333 39.4104 70.9566 39.5686 71.6726 39.5686C72.8177 39.5686 73.7884 39.1834 74.585 38.4133C75.4064 37.6431 75.817 36.488 75.817 34.9477V21.4944H69.7677ZM91.2664 38.3759C92.4613 39.5686 93.9673 40.1648 95.7843 40.1648C97.6014 40.1648 99.0946 39.5686 100.265 38.3759C101.46 37.1586 102.057 35.5934 102.057 33.6806C102.057 31.7675 101.46 30.2148 100.265 29.0223C99.0946 27.805 97.6014 27.1961 95.7843 27.1961C93.9673 27.1961 92.4613 27.805 91.2664 29.0223C90.0966 30.2148 89.5116 31.7675 89.5116 33.6806C89.5116 35.5934 90.0966 37.1586 91.2664 38.3759ZM103.252 40.9474C101.26 42.91 98.7711 43.8915 95.7843 43.8915C92.7973 43.8915 90.3081 42.91 88.3169 40.9474C86.3255 38.96 85.3298 36.5375 85.3298 33.6806C85.3298 30.8234 86.3255 28.4137 88.3169 26.4508C90.3081 24.4633 92.7973 23.4695 95.7843 23.4695C98.7711 23.4695 101.26 24.4633 103.252 26.4508C105.243 28.4137 106.239 30.8234 106.239 33.6806C106.239 36.5375 105.243 38.96 103.252 40.9474ZM121.634 23.4695C124.298 23.4695 126.575 24.3887 128.467 26.2274C130.359 28.0658 131.305 30.5129 131.305 33.5686C131.305 36.6246 130.359 39.109 128.467 41.0218C126.6 42.9349 124.41 43.8915 121.896 43.8915C119.407 43.8915 117.167 42.7983 115.175 40.612V43.5934H114.228C112.442 43.5934 110.993 42.1451 110.993 40.3584V15.9418C113.303 15.9418 115.175 17.8141 115.175 20.1236V27.2334C116.818 24.7241 118.971 23.4695 121.634 23.4695ZM115.1 33.7177C115.1 35.6059 115.673 37.1586 116.818 38.3759C117.963 39.5686 119.357 40.1648 121 40.1648C122.643 40.1648 124.074 39.5686 125.294 38.3759C126.513 37.1835 127.123 35.6432 127.123 33.755C127.123 31.8419 126.526 30.2645 125.331 29.0223C124.136 27.7552 122.705 27.1217 121.037 27.1217C119.37 27.1217 117.963 27.7552 116.818 29.0223C115.673 30.2645 115.1 31.8297 115.1 33.7177ZM155.271 23.6932C153.503 21.8547 151.325 20.9355 148.737 20.9355C146.148 20.9355 143.958 21.8547 142.165 23.6932C140.398 25.5316 139.514 27.7677 139.514 30.4011C139.514 33.0097 140.398 35.2333 142.165 37.0718C143.958 38.9102 146.148 39.8294 148.737 39.8294C151.325 39.8294 153.503 38.9102 155.271 37.0718C157.063 35.2333 157.959 33.0097 157.959 30.4011C157.959 27.7677 157.063 25.5316 155.271 23.6932ZM158.519 40.0158C155.881 42.5746 152.62 43.8541 148.737 43.8541C144.854 43.8541 141.593 42.5746 138.954 40.0158C136.316 37.4318 134.997 34.227 134.997 30.4011C134.997 26.5504 136.316 23.3453 138.954 20.7865C141.593 18.2025 144.854 16.9108 148.737 16.9108C152.62 16.9108 155.881 18.2025 158.519 20.7865C161.157 23.3453 162.477 26.5504 162.477 30.4011C162.477 34.227 161.157 37.4318 158.519 40.0158ZM177.854 27.6806C175.788 27.6806 174.232 28.3514 173.187 29.6929C172.141 31.0347 171.619 32.8358 171.619 35.0967V43.5934H167.437V23.7678H167.631C169.833 23.7678 171.619 25.553 171.619 27.7552C172.291 26.513 173.199 25.4943 174.344 24.6995C175.514 23.9044 176.746 23.4944 178.041 23.4695L178.076 27.4566C178.077 27.58 177.977 27.6806 177.854 27.6806ZM192.918 23.4695C195.582 23.4695 197.859 24.3887 199.751 26.2274C201.643 28.0658 202.588 30.5129 202.588 33.5686C202.588 36.6246 201.643 39.109 199.751 41.0218C197.884 42.9349 195.694 43.8915 193.18 43.8915C190.69 43.8915 188.45 42.7983 186.459 40.612V43.5934C184.149 43.5934 182.277 41.7211 182.277 39.4116V15.9418C184.586 15.9418 186.459 17.8141 186.459 20.1236V27.2334C188.101 24.7241 190.255 23.4695 192.918 23.4695ZM186.384 33.7177C186.384 35.6059 186.957 37.1586 188.101 38.3759C189.246 39.5686 190.64 40.1648 192.283 40.1648C193.926 40.1648 195.358 39.5686 196.577 38.3759C197.797 37.1835 198.407 35.6432 198.407 33.755C198.407 31.8419 197.809 30.2645 196.614 29.0223C195.42 27.7552 193.988 27.1217 192.321 27.1217C190.653 27.1217 189.246 27.7552 188.101 29.0223C186.957 30.2645 186.384 31.8297 186.384 33.7177ZM211.545 43.5934H207.363V23.7678C209.672 23.7678 211.545 25.6399 211.545 27.9496V43.5934ZM207.624 19.8175C207.102 19.2957 206.84 18.6746 206.84 17.9542C206.84 17.2338 207.102 16.6127 207.624 16.0909C208.147 15.5691 208.769 15.3083 209.491 15.3083C210.213 15.3083 210.835 15.5691 211.358 16.0909C211.881 16.6127 212.142 17.2338 212.142 17.9542C212.142 18.6746 211.881 19.2957 211.358 19.8175C210.835 20.3393 210.213 20.6001 209.491 20.6001C208.769 20.6001 208.147 20.3393 207.624 19.8175ZM222.761 27.1217V37.1835C222.761 38.1276 223.01 38.8853 223.508 39.4566C224.006 40.0033 224.703 40.2766 225.599 40.2766C226.495 40.2766 227.354 39.8419 228.175 38.9724L228.564 39.6383C229.337 40.9646 229.103 42.7448 227.691 43.3467C226.839 43.7098 225.943 43.8915 225.002 43.8915C223.234 43.8915 221.716 43.2828 220.446 42.0655C219.202 40.8233 218.58 39.1585 218.58 37.0718V27.1217H216.078V26.2694C216.078 24.8876 217.198 23.7678 218.58 23.7678V17.5444C220.889 17.5444 222.761 19.4166 222.761 21.7261V23.7678H227.989C227.989 25.6199 226.487 27.1217 224.635 27.1217H222.761Z" fill="white"/>
</mask>
<g mask="url(#mask0_1_18)">
<path d="M69.7677 21.4944C68.531 21.4944 67.5281 20.4919 67.5281 19.2549V17.5444H77.2368C78.8859 17.5444 80.2229 18.8811 80.2229 20.5304V34.724C80.2229 37.7548 79.4513 40.0282 77.908 41.5437C76.3647 43.0591 74.3856 43.8168 71.9714 43.8168C68.9346 43.8168 66.3459 42.7485 64.2051 40.612L64.7023 39.9232C65.7621 38.4551 67.8407 38.3747 69.5027 39.0941C70.2333 39.4104 70.9566 39.5686 71.6726 39.5686C72.8177 39.5686 73.7884 39.1834 74.585 38.4133C75.4064 37.6431 75.817 36.488 75.817 34.9477V21.4944H69.7677ZM91.2664 38.3759C92.4613 39.5686 93.9673 40.1648 95.7843 40.1648C97.6014 40.1648 99.0946 39.5686 100.265 38.3759C101.46 37.1586 102.057 35.5934 102.057 33.6806C102.057 31.7675 101.46 30.2148 100.265 29.0223C99.0946 27.805 97.6014 27.1961 95.7843 27.1961C93.9673 27.1961 92.4613 27.805 91.2664 29.0223C90.0966 30.2148 89.5116 31.7675 89.5116 33.6806C89.5116 35.5934 90.0966 37.1586 91.2664 38.3759ZM103.252 40.9474C101.26 42.91 98.7711 43.8915 95.7843 43.8915C92.7973 43.8915 90.3081 42.91 88.3169 40.9474C86.3255 38.96 85.3298 36.5375 85.3298 33.6806C85.3298 30.8234 86.3255 28.4137 88.3169 26.4508C90.3081 24.4633 92.7973 23.4695 95.7843 23.4695C98.7711 23.4695 101.26 24.4633 103.252 26.4508C105.243 28.4137 106.239 30.8234 106.239 33.6806C106.239 36.5375 105.243 38.96 103.252 40.9474ZM121.634 23.4695C124.298 23.4695 126.575 24.3887 128.467 26.2274C130.359 28.0658 131.305 30.5129 131.305 33.5686C131.305 36.6246 130.359 39.109 128.467 41.0218C126.6 42.9349 124.41 43.8915 121.896 43.8915C119.407 43.8915 117.167 42.7983 115.175 40.612V43.5934H114.228C112.442 43.5934 110.993 42.1451 110.993 40.3584V15.9418C113.303 15.9418 115.175 17.8141 115.175 20.1236V27.2334C116.818 24.7241 118.971 23.4695 121.634 23.4695ZM115.1 33.7177C115.1 35.6059 115.673 37.1586 116.818 38.3759C117.963 39.5686 119.357 40.1648 121 40.1648C122.643 40.1648 124.074 39.5686 125.294 38.3759C126.513 37.1835 127.123 35.6432 127.123 33.755C127.123 31.8419 126.526 30.2645 125.331 29.0223C124.136 27.7552 122.705 27.1217 121.037 27.1217C119.37 27.1217 117.963 27.7552 116.818 29.0223C115.673 30.2645 115.1 31.8297 115.1 33.7177ZM155.271 23.6932C153.503 21.8547 151.325 20.9355 148.737 20.9355C146.148 20.9355 143.958 21.8547 142.165 23.6932C140.398 25.5316 139.514 27.7677 139.514 30.4011C139.514 33.0097 140.398 35.2333 142.165 37.0718C143.958 38.9102 146.148 39.8294 148.737 39.8294C151.325 39.8294 153.503 38.9102 155.271 37.0718C157.063 35.2333 157.959 33.0097 157.959 30.4011C157.959 27.7677 157.063 25.5316 155.271 23.6932ZM158.519 40.0158C155.881 42.5746 152.62 43.8541 148.737 43.8541C144.854 43.8541 141.593 42.5746 138.954 40.0158C136.316 37.4318 134.997 34.227 134.997 30.4011C134.997 26.5504 136.316 23.3453 138.954 20.7865C141.593 18.2025 144.854 16.9108 148.737 16.9108C152.62 16.9108 155.881 18.2025 158.519 20.7865C161.157 23.3453 162.477 26.5504 162.477 30.4011C162.477 34.227 161.157 37.4318 158.519 40.0158ZM177.854 27.6806C175.788 27.6806 174.232 28.3514 173.187 29.6929C172.141 31.0347 171.619 32.8358 171.619 35.0967V43.5934H167.437V23.7678H167.631C169.833 23.7678 171.619 25.553 171.619 27.7552C172.291 26.513 173.199 25.4943 174.344 24.6995C175.514 23.9044 176.746 23.4944 178.041 23.4695L178.076 27.4566C178.077 27.58 177.977 27.6806 177.854 27.6806ZM192.918 23.4695C195.582 23.4695 197.859 24.3887 199.751 26.2274C201.643 28.0658 202.588 30.5129 202.588 33.5686C202.588 36.6246 201.643 39.109 199.751 41.0218C197.884 42.9349 195.694 43.8915 193.18 43.8915C190.69 43.8915 188.45 42.7983 186.459 40.612V43.5934C184.149 43.5934 182.277 41.7211 182.277 39.4116V15.9418C184.586 15.9418 186.459 17.8141 186.459 20.1236V27.2334C188.101 24.7241 190.255 23.4695 192.918 23.4695ZM186.384 33.7177C186.384 35.6059 186.957 37.1586 188.101 38.3759C189.246 39.5686 190.64 40.1648 192.283 40.1648C193.926 40.1648 195.358 39.5686 196.577 38.3759C197.797 37.1835 198.407 35.6432 198.407 33.755C198.407 31.8419 197.809 30.2645 196.614 29.0223C195.42 27.7552 193.988 27.1217 192.321 27.1217C190.653 27.1217 189.246 27.7552 188.101 29.0223C186.957 30.2645 186.384 31.8297 186.384 33.7177ZM211.545 43.5934H207.363V23.7678C209.672 23.7678 211.545 25.6399 211.545 27.9496V43.5934ZM207.624 19.8175C207.102 19.2957 206.84 18.6746 206.84 17.9542C206.84 17.2338 207.102 16.6127 207.624 16.0909C208.147 15.5691 208.769 15.3083 209.491 15.3083C210.213 15.3083 210.835 15.5691 211.358 16.0909C211.881 16.6127 212.142 17.2338 212.142 17.9542C212.142 18.6746 211.881 19.2957 211.358 19.8175C210.835 20.3393 210.213 20.6001 209.491 20.6001C208.769 20.6001 208.147 20.3393 207.624 19.8175ZM222.761 27.1217V37.1835C222.761 38.1276 223.01 38.8853 223.508 39.4566C224.006 40.0033 224.703 40.2766 225.599 40.2766C226.495 40.2766 227.354 39.8419 228.175 38.9724L228.564 39.6383C229.337 40.9646 229.103 42.7448 227.691 43.3467C226.839 43.7098 225.943 43.8915 225.002 43.8915C223.234 43.8915 221.716 43.2828 220.446 42.0655C219.202 40.8233 218.58 39.1585 218.58 37.0718V27.1217H216.078V26.2694C216.078 24.8876 217.198 23.7678 218.58 23.7678V17.5444C220.889 17.5444 222.761 19.4166 222.761 21.7261V23.7678H227.989C227.989 25.6199 226.487 27.1217 224.635 27.1217H222.761Z" fill="#67117C" stroke="#67117C" stroke-width="2"/>
</g>
<path d="M53.4314 30.2849C53.4314 45.3217 41.6775 57.4808 27.2157 57.4808C12.7539 57.4808 1 45.3217 1 30.2849C1 15.2478 12.7539 3.08875 27.2157 3.08875C41.6775 3.08875 53.4314 15.2478 53.4314 30.2849Z" stroke="#67117C" stroke-width="2"/>
<path d="M43.8735 34.3285C43.8735 46.0486 34.6988 55.5201 23.4169 55.5201C12.1353 55.5201 2.96057 46.0486 2.96057 34.3285C2.96057 22.6084 12.1353 13.1368 23.4169 13.1368C34.6988 13.1368 43.8735 22.6084 43.8735 34.3285Z" stroke="#67117C" stroke-width="2"/>
<path d="M42.648 32.2455C42.648 40.513 36.1627 47.1876 28.1959 47.1876C20.2293 47.1876 13.7441 40.513 13.7441 32.2455C13.7441 23.9778 20.2293 17.3032 28.1959 17.3032C36.1627 17.3032 42.648 23.9778 42.648 32.2455Z" stroke="#67117C" stroke-width="2"/>
<path d="M44.2468 26.9763C44.2468 28.3345 43.1994 29.4251 41.9204 29.4251C40.6411 29.4251 39.594 28.3345 39.594 26.9763C39.594 25.6179 40.6411 24.5275 41.9204 24.5275C43.1994 24.5275 44.2468 25.6179 44.2468 26.9763Z" fill="#67117C" stroke="#67117C"/>
<path d="M10.1809 48.543C10.1809 49.9014 9.13379 50.9918 7.85451 50.9918C6.57547 50.9918 5.52826 49.9014 5.52826 48.543C5.52826 47.1848 6.57547 46.0942 7.85451 46.0942C9.13379 46.0942 10.1809 47.1848 10.1809 48.543Z" fill="#67117C" stroke="#67117C"/>
<path d="M34.1984 3.44883C34.1984 4.80724 33.1513 5.89765 31.8722 5.89765C30.593 5.89765 29.5458 4.80724 29.5458 3.44883C29.5458 2.09066 30.593 1 31.8722 1C33.1513 1 34.1984 2.09066 34.1984 3.44883Z" fill="#67117C" stroke="#67117C"/>
<path d="M98.8167 33.6153C97.3533 33.9873 96.2039 35.1419 95.8481 36.6238L95.7804 36.4018C95.3564 35.0083 94.2294 33.9523 92.8304 33.6094L93.3878 33.367C94.4391 32.9096 95.2513 32.0337 95.6278 30.9508L95.707 30.7241L95.762 30.8816C96.1559 32.0058 97.0186 32.9039 98.1262 33.3421L98.8167 33.6153Z" fill="#67117C" stroke="#67117C"/>
<path d="M151.819 30.6293C150.356 31.0013 149.207 32.1559 148.851 33.6378L148.783 33.4158C148.359 32.0223 147.232 30.9662 145.833 30.6233L146.391 30.381C147.442 29.9236 148.254 29.0477 148.631 27.9647L148.71 27.738L148.765 27.8956C149.159 29.0198 150.021 29.9179 151.129 30.3561L151.819 30.6293Z" fill="#67117C" stroke="#67117C"/>
</svg>
