<svg width="1657" height="1673" viewBox="0 0 1657 1673" fill="none" xmlns="http://www.w3.org/2000/svg">
<g filter="url(#filter0_d_80_14)">
<path d="M524.5 152C346.1 14 99.5 12.5 5 1V1664.5H427H1620.5V736.5C1656.17 670.833 1690.7 513.4 1543.5 409C1396.3 304.6 1186.17 290.5 1099.5 296.5C982.167 305.833 702.9 290 524.5 152Z" fill="#71418B"/>
<path d="M524.5 152C346.1 14 99.5 12.5 5 1V1664.5H427H1620.5V736.5C1656.17 670.833 1690.7 513.4 1543.5 409C1396.3 304.6 1186.17 290.5 1099.5 296.5C982.167 305.833 702.9 290 524.5 152Z" stroke="#71418B"/>
</g>
<defs>
<filter id="filter0_d_80_14" x="0.5" y="0.435471" width="1655.54" height="1672.56" filterUnits="userSpaceOnUse" color-interpolation-filters="sRGB">
<feFlood flood-opacity="0" result="BackgroundImageFix"/>
<feColorMatrix in="SourceAlpha" type="matrix" values="0 0 0 0 0 0 0 0 0 0 0 0 0 0 0 0 0 0 127 0" result="hardAlpha"/>
<feOffset dy="4"/>
<feGaussianBlur stdDeviation="2"/>
<feComposite in2="hardAlpha" operator="out"/>
<feColorMatrix type="matrix" values="0 0 0 0 0 0 0 0 0 0 0 0 0 0 0 0 0 0 0.25 0"/>
<feBlend mode="normal" in2="BackgroundImageFix" result="effect1_dropShadow_80_14"/>
<feBlend mode="normal" in="SourceGraphic" in2="effect1_dropShadow_80_14" result="shape"/>
</filter>
</defs>
</svg>
